<?xml version="1.0" standalone="no"?>
<!DOCTYPE svg PUBLIC "-//W3C//DTD SVG 20010904//EN"
 "http://www.w3.org/TR/2001/REC-SVG-20010904/DTD/svg10.dtd">
<svg version="1.0" xmlns="http://www.w3.org/2000/svg"
 width="512.000000pt" height="512.000000pt" viewBox="0 0 512.000000 512.000000"
 preserveAspectRatio="xMidYMid meet">

<g transform="translate(0.000000,512.000000) scale(0.100000,-0.100000)"
fill="#000000" stroke="none">
<path d="M573 4355 c-161 -45 -285 -162 -335 -318 -18 -53 -21 -97 -26 -310
-4 -232 -3 -249 14 -269 11 -12 13 -18 7 -14 -10 6 -13 -229 -13 -1158 l0
-1165 21 -58 c29 -78 104 -153 182 -182 55 -20 74 -21 457 -21 l400 0 0 898
c0 705 -3 901 -12 911 -11 11 -10 12 2 5 8 -4 302 -223 653 -486 l637 -478
640 480 640 480 0 690 0 690 -641 -481 -641 -481 -791 594 c-436 327 -807 605
-825 617 -87 60 -260 87 -369 56z"/>
</g>
</svg>
